<svg xmlns="http://www.w3.org/2000/svg" version="1.1" xmlns:xlink="http://www.w3.org/1999/xlink" xmlns:svgjs="http://svgjs.dev/svgjs" viewBox="0 0 1920 1080"><rect width="1920" height="1080" fill="#ee5f00"></rect><g transform="matrix(0.5750000000000001,0.9959292143521044,-0.9959292143521044,0.5750000000000001,930.6370395745992,-691.055566283527)"><path d="M0,-1080C-0.9268450003213525,-1020.1294143792354,-5.773229031752642,-857.2163036787879,-5.561070001928115,-720.7764862754124C-5.348910972103589,-584.3366688720369,7.8485864996560055,-402.01169695985857,1.2729541789471597,-261.3610955797468C-5.302678141761686,-120.71049419963501,-41.369520251054794,-5.8840059698164,-45.01486392618119,123.1271220052584C-48.66020760130759,252.1382499803332,-32.23116942859695,366.7783566826787,-20.599107871811213,512.7056722707019C-8.967046315025476,658.6329878587252,33.23452888920323,849.7763840641157,24.777505414533238,998.691015533398C16.320481939863242,1147.6056470026801,-72.97850125851711,1281.3776242252172,-71.34124871983119,1406.1934610863948C-69.70399618114526,1531.0092979475723,22.71081252667694,1621.9516135481952,34.601020646648806,1747.5860367004627C46.49122876662067,1873.2204598527303,5.766836774441468,2091.264339450077,0,2160L 1920 2160 L 1920 -1080 Z" fill="url(&quot;#SvgjsLinearGradient1443&quot;)"></path><path d="M640,-1080C650.9037144207551,-979.1355691230104,702.42233794742,-664.5470720246437,705.4222865245308,-474.8134147380629C708.4222351016416,-285.079757451482,666.7413918632376,-106.63874137594323,657.9996914626647,58.40194371948536C649.2579910620918,223.44262881491395,644.8376356770391,337.8326456435059,652.9720841210936,515.4306958345086C661.1065325651482,693.0287460255113,706.3409495093889,951.3766902944832,706.8063821269918,1123.9902448655018C707.2718147445947,1296.6037994365206,666.8990768478765,1378.4437307382045,655.7646798267111,1551.1120232606208C644.6302828055458,1723.7803157830372,642.6274466377852,2058.5186705434367,640,2160L 1920 2160 L 1920 -1080 Z" fill="url(&quot;#SvgjsLinearGradient1444&quot;)"></path><path d="M1280,-1080C1269.0967945012924,-1002.2901211364343,1211.05482829032,-789.8890830616224,1214.5807670077538,-613.7407268186059C1218.1067057251876,-437.5923705755895,1287.0185978274476,-217.34569337240498,1301.1556323046022,-23.10986254190105C1315.292666781757,171.1259682886029,1308.2320718164915,356.2044739284172,1299.4029738706813,551.6742581644178C1290.5738759248711,747.1440424004184,1256.045669330221,979.3159040478887,1248.1810446297418,1149.7088428741024C1240.3164199292626,1320.1017817003162,1246.9120664394293,1405.650031600717,1252.2152256678057,1574.0318911217C1257.5183848961822,1742.413750642683,1275.3692042779676,2062.338648520283,1280,2160L 1920 2160 L 1920 -1080 Z" fill="url(&quot;#SvgjsLinearGradient1445&quot;)"></path></g><defs><linearGradient x1="0.1" y1="0" x2="0" y2="1" id="SvgjsLinearGradient1443"><stop stop-color="#ee5f00" offset="0"></stop><stop stop-color="#ee3700" offset="0"></stop></linearGradient><linearGradient x1="0.1" y1="0" x2="0" y2="1" id="SvgjsLinearGradient1444"><stop stop-color="#ff8f44" offset="0"></stop><stop stop-color="#ff7044" offset="0.3333333333333333"></stop></linearGradient><linearGradient x1="0.1" y1="0" x2="0" y2="1" id="SvgjsLinearGradient1445"><stop stop-color="#ffc29a" offset="0"></stop><stop stop-color="#ffb19a" offset="0.6666666666666666"></stop></linearGradient></defs></svg>